<svg width="24" height="24" viewBox="0 0 24 24" fill="none" xmlns="http://www.w3.org/2000/svg">
<path fill-rule="evenodd" clip-rule="evenodd" d="M10.7049 4.4319C10.8233 4.16926 11.0876 4 11.3792 4C12.162 4 12.9128 4.30649 13.4663 4.85205C14.0199 5.39761 14.3308 6.13754 14.3308 6.90907V9.09088H17.7658C18.0851 9.08797 18.4013 9.15318 18.6927 9.28207C18.9855 9.41158 19.2462 9.60227 19.4568 9.84094C19.6673 10.0796 19.8227 10.3605 19.9122 10.6643C20.0017 10.968 20.0231 11.2873 19.9749 11.6L18.9566 18.1453C18.9566 18.1455 18.9566 18.1451 18.9566 18.1453C18.8765 18.6654 18.6083 19.1399 18.2016 19.4806C17.796 19.8204 17.2797 20.0048 16.7474 19.9999H6.21375C5.62663 19.9999 5.06355 19.77 4.64839 19.3609C4.23323 18.9517 4 18.3968 4 17.8181V12.7272C4 12.1486 4.23323 11.5936 4.64839 11.1845C5.06355 10.7753 5.62663 10.5454 6.21375 10.5454H7.94795L10.7049 4.4319ZM9.16542 11.427L11.8277 5.52334C12.0501 5.59326 12.2546 5.71486 12.4227 5.88056C12.6995 6.15334 12.855 6.52331 12.855 6.90907V9.81815C12.855 10.2198 13.1854 10.5454 13.5929 10.5454H17.7695L17.7779 10.5454C17.8849 10.5442 17.9908 10.5659 18.0884 10.6091C18.186 10.6523 18.2729 10.7158 18.3431 10.7954C18.4133 10.8749 18.4651 10.9686 18.4949 11.0698C18.5247 11.171 18.5318 11.2773 18.5159 11.3814C18.5159 11.3813 18.5158 11.3815 18.5159 11.3814L17.4975 17.9272C17.4708 18.1007 17.3814 18.2587 17.2458 18.3723C17.1102 18.4859 16.9375 18.5474 16.7596 18.5454L9.16542 18.5454V11.427ZM7.68959 18.5454V12H6.21375C6.01804 12 5.83035 12.0766 5.69197 12.213C5.55358 12.3494 5.47583 12.5343 5.47583 12.7272V17.8181C5.47583 18.011 5.55358 18.196 5.69197 18.3324C5.83035 18.4687 6.01804 18.5454 6.21375 18.5454H7.68959Z" fill="#1ACAA4"/>
</svg>
