<svg width="24" height="24" viewBox="0 0 24 24" fill="none" xmlns="http://www.w3.org/2000/svg">
<path fill-rule="evenodd" clip-rule="evenodd" d="M12 5.45455C8.38505 5.45455 5.45455 8.38505 5.45455 12C5.45455 15.615 8.38505 18.5455 12 18.5455C15.615 18.5455 18.5455 15.615 18.5455 12C18.5455 8.38505 15.615 5.45455 12 5.45455ZM4 12C4 7.58172 7.58172 4 12 4C16.4183 4 20 7.58172 20 12C20 16.4183 16.4183 20 12 20C7.58172 20 4 16.4183 4 12Z" fill="#1ACAA4"/>
<path fill-rule="evenodd" clip-rule="evenodd" d="M6.21776 6.21776C6.50812 5.92741 6.97887 5.92741 7.26922 6.21776L17.7822 16.7308C18.0726 17.0211 18.0726 17.4919 17.7822 17.7822C17.4919 18.0726 17.0211 18.0726 16.7308 17.7822L6.21776 7.26922C5.92741 6.97887 5.92741 6.50812 6.21776 6.21776Z" fill="#1ACAA4"/>
</svg>
