<svg width="24" height="24" viewBox="0 0 24 24" fill="none" xmlns="http://www.w3.org/2000/svg">
<path fill-rule="evenodd" clip-rule="evenodd" d="M4.09835 14.0984C4.80161 13.3951 5.75544 13 6.75 13H12.75C13.7446 13 14.6984 13.3951 15.4017 14.0984C16.1049 14.8016 16.5 15.7554 16.5 16.75V18.25C16.5 18.6642 16.1642 19 15.75 19C15.3358 19 15 18.6642 15 18.25V16.75C15 16.1533 14.7629 15.581 14.341 15.159C13.919 14.7371 13.3467 14.5 12.75 14.5H6.75C6.15326 14.5 5.58097 14.7371 5.15901 15.159C4.73705 15.581 4.5 16.1533 4.5 16.75V18.25C4.5 18.6642 4.16421 19 3.75 19C3.33579 19 3 18.6642 3 18.25V16.75C3 15.7554 3.39509 14.8016 4.09835 14.0984Z" fill="#1ACAA4"/>
<path fill-rule="evenodd" clip-rule="evenodd" d="M9.75 5.5C8.50736 5.5 7.5 6.50736 7.5 7.75C7.5 8.99264 8.50736 10 9.75 10C10.9926 10 12 8.99264 12 7.75C12 6.50736 10.9926 5.5 9.75 5.5ZM6 7.75C6 5.67893 7.67893 4 9.75 4C11.8211 4 13.5 5.67893 13.5 7.75C13.5 9.82107 11.8211 11.5 9.75 11.5C7.67893 11.5 6 9.82107 6 7.75Z" fill="#1ACAA4"/>
<path fill-rule="evenodd" clip-rule="evenodd" d="M17.274 13.6601C17.3776 13.259 17.7866 13.0179 18.1877 13.1214C18.9922 13.3291 19.7049 13.7982 20.214 14.4548C20.723 15.1115 20.9996 15.9187 21.0002 16.7495L21.0002 18.2501C21.0002 18.6643 20.6644 19.0001 20.2502 19.0001C19.836 19.0001 19.5002 18.6643 19.5002 18.2501L19.5002 16.7507C19.5002 16.7506 19.5002 16.7507 19.5002 16.7507C19.4998 16.2522 19.3338 15.7678 19.0285 15.3738C18.723 14.9798 18.2954 14.6984 17.8127 14.5738C17.4116 14.4702 17.1704 14.0612 17.274 13.6601Z" fill="#1ACAA4"/>
<path fill-rule="evenodd" clip-rule="evenodd" d="M14.2736 4.66156C14.3764 4.26029 14.7849 4.01829 15.1862 4.12103C15.9928 4.32756 16.7078 4.79669 17.2184 5.45445C17.7289 6.1122 18.0061 6.92118 18.0061 7.75384C18.0061 8.5865 17.7289 9.39548 17.2184 10.0532C16.7078 10.711 15.9928 11.1801 15.1862 11.3867C14.7849 11.4894 14.3764 11.2474 14.2736 10.8461C14.1709 10.4449 14.4129 10.0363 14.8142 9.93353C15.2981 9.80961 15.7271 9.52814 16.0334 9.13348C16.3398 8.73882 16.5061 8.25344 16.5061 7.75384C16.5061 7.25425 16.3398 6.76886 16.0334 6.3742C15.7271 5.97955 15.2981 5.69807 14.8142 5.57416C14.4129 5.47141 14.1709 5.06283 14.2736 4.66156Z" fill="#1ACAA4"/>
</svg>
