<svg width="24" height="24" viewBox="0 0 24 24" fill="none" xmlns="http://www.w3.org/2000/svg">
<path fill-rule="evenodd" clip-rule="evenodd" d="M12 5.45455C8.38505 5.45455 5.45455 8.38505 5.45455 12C5.45455 15.615 8.38505 18.5455 12 18.5455C15.615 18.5455 18.5455 15.615 18.5455 12C18.5455 8.38505 15.615 5.45455 12 5.45455ZM4 12C4 7.58172 7.58172 4 12 4C16.4183 4 20 7.58172 20 12C20 16.4183 16.4183 20 12 20C7.58172 20 4 16.4183 4 12Z" fill="#1ACAA4"/>
<path fill-rule="evenodd" clip-rule="evenodd" d="M4 12C4 11.4477 4.32561 11 4.72727 11H19.2727C19.6744 11 20 11.4477 20 12C20 12.5523 19.6744 13 19.2727 13H4.72727C4.32561 13 4 12.5523 4 12Z" fill="#1ACAA4"/>
<path fill-rule="evenodd" clip-rule="evenodd" d="M9.60019 11.8798C9.65501 14.1497 10.501 16.335 12 18.117C13.499 16.335 14.345 14.1497 14.3998 11.8798C14.345 9.60999 13.499 7.4247 12 5.64265C10.501 7.4247 9.65501 9.60999 9.60019 11.8798ZM12 4.49786L11.4093 4C9.27751 6.15357 8.06601 8.94834 8.00017 11.8645C7.99994 11.8747 7.99994 11.885 8.00017 11.8952C8.06601 14.8113 9.27751 17.6061 11.4093 19.7597C11.5609 19.9128 11.7753 20 12 20C12.2247 20 12.4391 19.9128 12.5907 19.7597C14.7225 17.6061 15.934 14.8113 15.9998 11.8952C16.0001 11.885 16.0001 11.8747 15.9998 11.8645C15.934 8.94834 14.7225 6.15357 12.5907 4L12 4.49786Z" fill="#1ACAA4"/>
</svg>
