<svg width="24" height="24" viewBox="0 0 24 24" fill="none" xmlns="http://www.w3.org/2000/svg">
<path fill-rule="evenodd" clip-rule="evenodd" d="M2.24408 6.25105C2.56951 5.91632 3.09715 5.91632 3.42259 6.25105L9.08333 12.0735L12.6607 8.39391C12.9862 8.05917 13.5138 8.05917 13.8393 8.39391L21.7559 16.5368C22.0814 16.8715 22.0814 17.4142 21.7559 17.7489C21.4305 18.0837 20.9028 18.0837 20.5774 17.7489L13.25 10.2122L9.67259 13.8918C9.34715 14.2265 8.81951 14.2265 8.49408 13.8918L2.24408 7.46323C1.91864 7.1285 1.91864 6.58579 2.24408 6.25105Z" fill="#1ACAA4"/>
<path fill-rule="evenodd" clip-rule="evenodd" d="M21.125 11C21.6082 11 22 11.3918 22 11.875V17.125C22 17.6082 21.6082 18 21.125 18H15.875C15.3918 18 15 17.6082 15 17.125C15 16.6418 15.3918 16.25 15.875 16.25H20.25V11.875C20.25 11.3918 20.6418 11 21.125 11Z" fill="#1ACAA4"/>
</svg>
