<svg width="24" height="24" viewBox="0 0 24 24" fill="none" xmlns="http://www.w3.org/2000/svg">
<path fill-rule="evenodd" clip-rule="evenodd" d="M6.4 5.6C5.95817 5.6 5.6 5.95817 5.6 6.4V17.6C5.6 18.0418 5.95817 18.4 6.4 18.4H17.6C18.0418 18.4 18.4 18.0418 18.4 17.6V6.4C18.4 5.95817 18.0418 5.6 17.6 5.6H6.4ZM4 6.4C4 5.07452 5.07452 4 6.4 4H17.6C18.9255 4 20 5.07452 20 6.4V17.6C20 18.9255 18.9255 20 17.6 20H6.4C5.07452 20 4 18.9255 4 17.6V6.4Z" fill="#1ACAA4"/>
<path fill-rule="evenodd" clip-rule="evenodd" d="M12 8C12.5523 8 13 8.35817 13 8.8V15.2C13 15.6418 12.5523 16 12 16C11.4477 16 11 15.6418 11 15.2V8.8C11 8.35817 11.4477 8 12 8Z" fill="#1ACAA4"/>
<path fill-rule="evenodd" clip-rule="evenodd" d="M8 12C8 11.4477 8.35817 11 8.8 11H15.2C15.6418 11 16 11.4477 16 12C16 12.5523 15.6418 13 15.2 13H8.8C8.35817 13 8 12.5523 8 12Z" fill="#1ACAA4"/>
</svg>
