<svg width="80" height="80" viewBox="0 0 80 80" fill="none" xmlns="http://www.w3.org/2000/svg">
<path d="M15.1187 29.6C15.0727 27.9677 16.8966 26.9713 18.2453 27.8918L19.5064 28.7525C20.5625 29.4733 21.8995 29.6458 23.104 29.2166L24.5422 28.7041C26.0804 28.156 27.5917 29.5827 27.133 31.1499L26.7041 32.6152C26.3449 33.8424 26.5941 35.1672 27.3744 36.1801L28.3063 37.3896C29.3029 38.6831 28.4131 40.5613 26.7808 40.6093L25.2547 40.6543C23.9766 40.6919 22.7935 41.3382 22.0714 42.3934L21.2091 43.6534C20.2868 45.001 18.2256 44.7351 17.6755 43.1975L17.1612 41.76C16.7304 40.5561 15.7501 39.6307 14.5235 39.2699L13.0587 38.8392C11.4921 38.3784 11.108 36.3359 12.4003 35.3377L13.6086 34.4043C14.6204 33.6226 15.1976 32.4043 15.1616 31.1262L15.1187 29.6Z" fill="white" stroke="#1ACAA4" stroke-width="2"/>
<path d="M63.9477 29.6C63.9937 27.9677 62.1698 26.9713 60.8211 27.8918L59.56 28.7525C58.5039 29.4733 57.1669 29.6458 55.9624 29.2166L54.5242 28.7041C52.986 28.156 51.4747 29.5827 51.9334 31.1499L52.3623 32.6152C52.7215 33.8424 52.4723 35.1672 51.692 36.1801L50.7601 37.3896C49.7635 38.6831 50.6533 40.5613 52.2856 40.6093L53.8117 40.6543C55.0898 40.6919 56.2729 41.3382 56.995 42.3934L57.8573 43.6534C58.7796 45.001 60.8408 44.7351 61.3909 43.1975L61.9052 41.76C62.336 40.5561 63.3163 39.6307 64.5429 39.2699L66.0077 38.8392C67.5743 38.3784 67.9584 36.3359 66.6661 35.3377L65.4578 34.4043C64.446 33.6226 63.8688 32.4043 63.9048 31.1262L63.9477 29.6Z" fill="white" stroke="#1ACAA4" stroke-width="2"/>
<path d="M39.9282 19.0054C41.8431 19.0054 43.3955 17.4683 43.3955 15.5722C43.3955 13.6761 41.8431 12.139 39.9282 12.139C38.0133 12.139 36.4609 13.6761 36.4609 15.5722C36.4609 17.4683 38.0133 19.0054 39.9282 19.0054Z" stroke="#787878" stroke-width="2" stroke-miterlimit="10" stroke-linecap="round"/>
<path d="M33.4323 52.5899H45.9296C46.4402 52.5899 46.93 52.7908 47.2911 53.1483C47.6522 53.5059 47.8551 53.9909 47.8551 54.4965V64.4286H31.4942V54.5028C31.4933 54.2508 31.5429 54.0012 31.6401 53.7683C31.7373 53.5355 31.8801 53.324 32.0603 53.1461C32.2406 52.9682 32.4546 52.8275 32.6901 52.732C32.9256 52.6365 33.1778 52.5882 33.4323 52.5899Z" stroke="#787878" stroke-width="2" stroke-miterlimit="10" stroke-linecap="round"/>
<path d="M21.7223 59.4439H31.4948V64.4286H20.168V60.9829C20.168 60.5747 20.3317 60.1833 20.6232 59.8947C20.9147 59.606 21.31 59.4439 21.7223 59.4439Z" stroke="#787878" stroke-width="2" stroke-miterlimit="10" stroke-linecap="round"/>
<path d="M47.8555 55.7053H57.4455C57.9078 55.7053 58.3512 55.8872 58.678 56.2108C59.0049 56.5345 59.1886 56.9735 59.1886 57.4313V64.4286H47.8618V55.7053H47.8555Z" stroke="#787878" stroke-width="2" stroke-miterlimit="10" stroke-linecap="round"/>
<path d="M17.6504 64.4286H61.6865" stroke="#787878" stroke-width="2" stroke-miterlimit="10" stroke-linecap="round"/>
<path d="M43.3949 22.6817H35.3906C35.0572 22.6814 34.7282 22.6068 34.4278 22.4635C32.9679 21.7657 28.4435 19.4976 26.1341 17.0302C25.7893 16.6555 25.3257 16.4086 24.8198 16.3305C24.314 16.2523 23.7964 16.3475 23.3527 16.6003H23.3024C23.0408 16.7509 22.813 16.9528 22.633 17.1936C22.453 17.4344 22.3246 17.709 22.2557 18.0008C22.1867 18.2925 22.1787 18.5952 22.2321 18.8901C22.2855 19.185 22.3992 19.4659 22.5661 19.7158C25.0908 23.5908 29.037 26.3432 33.572 27.3923C34.0589 27.5054 34.4924 27.7793 34.8012 28.1688C35.11 28.5584 35.2757 29.0404 35.271 29.5356V52.5899H44.7101V29.3487C44.7098 28.8728 44.8655 28.4097 45.1537 28.0289C45.4419 27.648 45.8471 27.37 46.3084 27.2365C48.9765 26.4576 54.2686 24.3827 56.6473 19.8341C56.8618 19.4194 56.9379 18.948 56.8643 18.4877C56.7908 18.0274 56.5716 17.6022 56.2382 17.2733V17.2733C56.0319 17.0683 55.7867 16.9057 55.5167 16.7947C55.2468 16.6838 54.9574 16.6266 54.6651 16.6266C54.3728 16.6266 54.0834 16.6838 53.8134 16.7947C53.5435 16.9057 53.2983 17.0683 53.0919 17.2733C51.0342 19.3731 47.2271 22.6381 43.3949 22.6817Z" stroke="#787878" stroke-width="2" stroke-miterlimit="10" stroke-linecap="round"/>
<path d="M39.6699 38.128V52.5899" stroke="#787878" stroke-width="2" stroke-miterlimit="10" stroke-linecap="round"/>
</svg>
