<svg width="24" height="23" viewBox="0 0 24 23" fill="none" xmlns="http://www.w3.org/2000/svg">
<path fill-rule="evenodd" clip-rule="evenodd" d="M12.9643 4.27371C13.8537 3.36318 15.054 2.85143 16.3087 2.86298C17.5633 2.87454 18.7546 3.40826 19.6284 4.33454C20.501 5.25945 20.9892 6.50221 20.9998 7.79317C21.0104 9.0841 20.5427 10.3353 19.6858 11.2756L19.6765 11.2856L17.3084 13.7958C17.3083 13.7959 17.3083 13.7959 17.3083 13.7959C16.8307 14.3022 16.2533 14.6966 15.6137 14.9495C14.974 15.2025 14.2888 15.3072 13.6053 15.2553C12.9219 15.2034 12.259 14.9964 11.6617 14.6505C11.0645 14.3047 10.5479 13.8288 10.1448 13.2576C9.89384 12.9019 9.97733 12.4092 10.3313 12.157C10.6853 11.9048 11.1757 11.9887 11.4267 12.3444C11.7017 12.734 12.0501 13.0531 12.4464 13.2826C12.8424 13.5119 13.278 13.6471 13.7237 13.6809C14.1694 13.7147 14.6175 13.6467 15.0383 13.4803C15.4593 13.3139 15.8449 13.0521 16.1677 12.7098L16.1678 12.7097L18.5311 10.2047C19.1095 9.56742 19.4358 8.70695 19.4285 7.80617C19.4211 6.90317 19.079 6.04723 18.488 5.42073C17.8982 4.79559 17.1094 4.4493 16.2943 4.44179C15.4809 4.4343 14.6886 4.76455 14.0896 5.37579L12.7359 6.80228C12.4365 7.11784 11.9391 7.12975 11.6251 6.82888C11.311 6.52802 11.2992 6.02832 11.5986 5.71277L12.9564 4.28191L12.9643 4.27371Z" fill="white"/>
<path fill-rule="evenodd" clip-rule="evenodd" d="M8.38626 7.95272C9.02603 7.69976 9.71121 7.59508 10.3947 7.64697C11.0781 7.69885 11.741 7.90583 12.3383 8.25175C12.9355 8.59756 13.4521 9.07347 13.8552 9.64465C14.1062 10.0003 14.0227 10.4931 13.6687 10.7452C13.3147 10.9974 12.8243 10.9135 12.5733 10.5579C12.2983 10.1682 11.9499 9.84913 11.5536 9.61967C11.1576 9.3903 10.722 9.25518 10.2763 9.22135C9.83064 9.18752 9.38255 9.25552 8.96171 9.42192C8.54071 9.58838 8.15505 9.85018 7.83231 10.1924L7.83222 10.1925L5.46888 12.6976C4.89046 13.3348 4.56416 14.1953 4.57154 15.0961C4.57894 15.9991 4.92096 16.855 5.51203 17.4815C6.1018 18.1067 6.89056 18.4529 7.70573 18.4605C8.51879 18.4679 9.31071 18.138 9.90963 17.5273L11.2546 16.1016C11.5531 15.7852 12.0504 15.7718 12.3654 16.0718C12.6803 16.3717 12.6936 16.8714 12.3951 17.1878L11.0452 18.6187L11.0357 18.6285C10.1463 19.5391 8.94605 20.0508 7.69132 20.0393C6.43665 20.0277 5.24544 19.494 4.37156 18.5677C3.49897 17.6428 3.01076 16.4 3.00018 15.1091C2.98959 13.8181 3.45733 12.567 4.31419 11.6266L4.32348 11.6166L6.69165 9.10642C6.69168 9.10639 6.69171 9.10635 6.69174 9.10632C7.16928 8.59999 7.7467 8.2056 8.38626 7.95272Z" fill="white"/>
</svg>
