<svg width="31" height="31" viewBox="0 0 31 31" fill="none" xmlns="http://www.w3.org/2000/svg">
<path fill-rule="evenodd" clip-rule="evenodd" d="M0.566895 2.21436C0.566895 1.38593 1.23847 0.714355 2.06689 0.714355H10.1269C11.9979 0.714355 13.7601 1.53239 15.0358 2.93426C16.3072 4.33142 17.0002 6.19852 17.0002 8.11912V28.7858C17.0002 29.6142 16.3287 30.2858 15.5002 30.2858C14.6718 30.2858 14.0002 29.6142 14.0002 28.7858C14.0002 27.9658 13.7025 27.2046 13.2105 26.6639C12.7227 26.1279 12.0931 25.8572 11.4702 25.8572H2.06689C1.23847 25.8572 0.566895 25.1856 0.566895 24.3572V2.21436ZM14.0002 23.5132V8.11912C14.0002 6.90764 13.561 5.77094 12.817 4.95338C12.0773 4.14054 11.1061 3.71436 10.1269 3.71436H3.56689V22.8572H11.4702C12.3676 22.8572 13.2319 23.0897 14.0002 23.5132Z" fill="#1ACAA4"/>
<path fill-rule="evenodd" clip-rule="evenodd" d="M15.9644 2.93426C17.2401 1.53239 19.0023 0.714355 20.8733 0.714355H28.9333C29.7618 0.714355 30.4333 1.38593 30.4333 2.21436V24.3572C30.4333 25.1856 29.7618 25.8572 28.9333 25.8572H19.53C18.9071 25.8572 18.2775 26.1279 17.7898 26.6639C17.2977 27.2046 17 27.9658 17 28.7858C17 29.6142 16.3284 30.2858 15.5 30.2858C14.6716 30.2858 14 29.6142 14 28.7858V8.11912C14 6.19852 14.693 4.33142 15.9644 2.93426ZM17 23.5132C17.7683 23.0897 18.6326 22.8572 19.53 22.8572H27.4333V3.71436H20.8733C19.8942 3.71436 18.9229 4.14054 18.1832 4.95338C17.4392 5.77094 17 6.90764 17 8.11912V23.5132Z" fill="#1ACAA4"/>
</svg>
