<svg width="31" height="31" viewBox="0 0 31 31" fill="none" xmlns="http://www.w3.org/2000/svg">
<path d="M6.4585 21.9583H5.16683C4.48169 21.9583 3.82461 21.6862 3.34014 21.2017C2.85567 20.7172 2.5835 20.0601 2.5835 19.375V6.45833C2.5835 5.77319 2.85567 5.11611 3.34014 4.63164C3.82461 4.14717 4.48169 3.875 5.16683 3.875H25.8335C26.5186 3.875 27.1757 4.14717 27.6602 4.63164C28.1447 5.11611 28.4168 5.77319 28.4168 6.45833V19.375C28.4168 20.0601 28.1447 20.7172 27.6602 21.2017C27.1757 21.6862 26.5186 21.9583 25.8335 21.9583H24.5418" stroke="#1ACAA4" stroke-width="3" stroke-linecap="round" stroke-linejoin="round"/>
<path d="M15.4998 19.375L21.9582 27.125H9.0415L15.4998 19.375Z" stroke="#1ACAA4" stroke-width="3" stroke-linecap="round" stroke-linejoin="round"/>
</svg>
