<svg width="80" height="80" viewBox="0 0 80 80" fill="none" xmlns="http://www.w3.org/2000/svg">
<path d="M39.918 49.5127C43.6416 49.5127 46.6602 46.4878 46.6602 42.7564C46.6602 39.0249 43.6416 36 39.918 36C36.1944 36 33.1758 39.0249 33.1758 42.7564C33.1758 46.4878 36.1944 49.5127 39.918 49.5127Z" stroke="#787878" stroke-width="2" stroke-miterlimit="10" stroke-linecap="round"/>
<path d="M56.1472 67.6337H23.5586C23.8927 63.5311 25.755 59.7046 28.7753 56.9148C31.7957 54.125 35.753 52.5763 39.8606 52.5763C43.9683 52.5763 47.9256 54.125 50.9459 56.9148C53.9663 59.7046 55.8286 63.5311 56.1627 67.6337H56.1472Z" stroke="#787878" stroke-width="2" stroke-miterlimit="10" stroke-linecap="round"/>
<path d="M33.6948 18.3261C31.6765 18.8736 29.7436 19.6987 27.9512 20.7775" stroke="#1ACAA4" stroke-width="2" stroke-linecap="round" stroke-linejoin="round"/>
<path d="M19.6836 52.2089C18.6459 50.3779 17.8645 48.4124 17.3613 46.3679" stroke="#1ACAA4" stroke-width="2" stroke-linecap="round" stroke-linejoin="round"/>
<path d="M19.8081 29.0386C18.7593 30.823 17.9622 32.7444 17.4395 34.7479" stroke="#1ACAA4" stroke-width="2" stroke-linecap="round" stroke-linejoin="round"/>
<path d="M62.2433 34.7479C61.6732 32.5848 60.789 30.5174 59.6191 28.6119" stroke="#1ACAA4" stroke-width="2" stroke-linecap="round" stroke-linejoin="round"/>
<path d="M51.296 20.5292C49.4182 19.4562 47.3985 18.6544 45.2969 18.1477" stroke="#1ACAA4" stroke-width="2" stroke-linecap="round" stroke-linejoin="round"/>
<path d="M62.3354 46.3679C61.7876 48.5737 60.9162 50.6858 59.75 52.6354" stroke="#1ACAA4" stroke-width="2" stroke-linecap="round" stroke-linejoin="round"/>
<path d="M52.3496 50.1999C54.113 47.8643 55.19 45.0814 55.4591 42.165C55.7282 39.2487 55.1788 36.3151 53.8728 33.695C52.5667 31.0749 50.5561 28.8727 48.0677 27.3368C45.5793 25.8008 42.712 24.9923 39.7894 25.0023C36.8668 25.0123 34.0052 25.8404 31.5273 27.3934C29.0493 28.9463 27.0537 31.1623 25.7656 33.7912C24.4774 36.4201 23.948 39.3575 24.237 42.2719C24.526 45.1863 25.6219 47.9618 27.4011 50.2853" stroke="#1ACAA4" stroke-width="2" stroke-miterlimit="10" stroke-linecap="round"/>
<path d="M51.2969 20.5292L53.6191 18.2021C53.8092 18.0121 54.0667 17.9055 54.3351 17.9055C54.6036 17.9055 54.8611 18.0121 55.0512 18.2021L61.8166 24.9817C62.0061 25.1722 62.1126 25.4303 62.1126 25.6993C62.1126 25.9683 62.0061 26.2264 61.8166 26.4168L59.6337 28.6042" stroke="#1ACAA4" stroke-width="2" stroke-linecap="round" stroke-linejoin="round"/>
<path d="M19.6831 52.209L17.1983 54.6912C17.0088 54.8816 16.9023 55.1397 16.9023 55.4087C16.9023 55.6777 17.0088 55.9356 17.1983 56.1261L21.4325 60.3694" stroke="#1ACAA4" stroke-width="2" stroke-linecap="round" stroke-linejoin="round"/>
<path d="M59.7492 52.6354L61.8005 54.6912C61.9901 54.8816 62.0965 55.1397 62.0965 55.4087C62.0965 55.6777 61.9901 55.9356 61.8005 56.1261L58.1934 59.741" stroke="#1ACAA4" stroke-width="2" stroke-linecap="round" stroke-linejoin="round"/>
<path d="M27.958 20.7775L25.3958 18.2099C25.2057 18.0199 24.9482 17.9133 24.6798 17.9133C24.4113 17.9133 24.1538 18.0199 23.9638 18.2099L17.1983 24.9895C17.0088 25.18 16.9023 25.4381 16.9023 25.7071C16.9023 25.9761 17.0088 26.2341 17.1983 26.4246L19.807 29.0386" stroke="#1ACAA4" stroke-width="2" stroke-linecap="round" stroke-linejoin="round"/>
<path d="M62.2422 34.7479H65.2456C65.3794 34.7479 65.5119 34.7743 65.6354 34.8259C65.759 34.8774 65.8711 34.953 65.9654 35.0482C66.0597 35.1434 66.1342 35.2562 66.1847 35.3804C66.2352 35.5046 66.2607 35.6376 66.2596 35.7717V45.3517C66.2607 45.4854 66.2352 45.618 66.1846 45.7418C66.134 45.8655 66.0593 45.9779 65.9649 46.0724C65.8706 46.167 65.7584 46.2418 65.6349 46.2925C65.5114 46.3432 65.3791 46.3689 65.2456 46.3679H62.3351" stroke="#1ACAA4" stroke-width="2" stroke-linecap="round" stroke-linejoin="round"/>
<path d="M17.4389 34.7479H13.7543C13.6205 34.7479 13.488 34.7743 13.3645 34.8259C13.2409 34.8774 13.1288 34.953 13.0345 35.0482C12.9402 35.1434 12.8657 35.2562 12.8152 35.3804C12.7647 35.5046 12.7392 35.6376 12.7403 35.7717V45.3517C12.7392 45.4854 12.7647 45.618 12.8153 45.7418C12.8659 45.8655 12.9406 45.9779 13.035 46.0724C13.1294 46.167 13.2415 46.2418 13.365 46.2925C13.4885 46.3432 13.6208 46.3689 13.7543 46.3679H17.346" stroke="#1ACAA4" stroke-width="2" stroke-linecap="round" stroke-linejoin="round"/>
<path d="M33.6953 18.3261V14.7579C33.6943 14.6235 33.7201 14.4902 33.7711 14.3659C33.8222 14.2417 33.8976 14.129 33.9928 14.0343C34.088 13.9396 34.2011 13.8649 34.3255 13.8146C34.4499 13.7644 34.583 13.7397 34.7171 13.7417H44.2692C44.4033 13.7397 44.5365 13.7644 44.6609 13.8146C44.7853 13.8649 44.8984 13.9396 44.9936 14.0343C45.0888 14.129 45.1641 14.2417 45.2152 14.3659C45.2663 14.4902 45.292 14.6235 45.291 14.7579V18.1477" stroke="#1ACAA4" stroke-width="2" stroke-linecap="round" stroke-linejoin="round"/>
</svg>
