<svg width="80" height="80" viewBox="0 0 80 80" fill="none" xmlns="http://www.w3.org/2000/svg">
<path fill-rule="evenodd" clip-rule="evenodd" d="M52.6562 12.4091C50.4471 12.4091 48.6562 14.1999 48.6562 16.4091V18.1704V19.9318V27.9204L52.403 23.9239C52.4867 23.9291 52.5712 23.9318 52.6562 23.9318H64.1562C66.3654 23.9318 68.1562 22.1409 68.1562 19.9318V16.4091C68.1562 14.1999 66.3654 12.4091 64.1562 12.4091H52.6562Z" fill="white"/>
<path d="M48.6562 27.9204H47.6562C47.6562 28.3308 47.9069 28.6994 48.2885 28.8503C48.6701 29.0012 49.1051 28.9037 49.3858 28.6044L48.6562 27.9204ZM52.403 23.9239L52.4653 22.9258C52.1678 22.9072 51.8774 23.0224 51.6734 23.24L52.403 23.9239ZM49.6562 16.4091C49.6562 14.7522 50.9994 13.4091 52.6562 13.4091V11.4091C49.8948 11.4091 47.6562 13.6476 47.6562 16.4091H49.6562ZM49.6562 18.1704V16.4091H47.6562V18.1704H49.6562ZM49.6562 19.9318V18.1704H47.6562V19.9318H49.6562ZM49.6562 27.9204V19.9318H47.6562V27.9204H49.6562ZM51.6734 23.24L47.9267 27.2365L49.3858 28.6044L53.1325 24.6078L51.6734 23.24ZM52.6562 22.9318C52.592 22.9318 52.5283 22.9298 52.4653 22.9258L52.3406 24.922C52.4451 24.9285 52.5504 24.9318 52.6562 24.9318V22.9318ZM64.1562 22.9318H52.6562V24.9318H64.1562V22.9318ZM67.1562 19.9318C67.1562 21.5886 65.8131 22.9318 64.1562 22.9318V24.9318C66.9177 24.9318 69.1562 22.6932 69.1562 19.9318H67.1562ZM67.1562 16.4091V19.9318H69.1562V16.4091H67.1562ZM64.1562 13.4091C65.8131 13.4091 67.1562 14.7522 67.1562 16.4091H69.1562C69.1562 13.6476 66.9177 11.4091 64.1562 11.4091V13.4091ZM52.6562 13.4091H64.1562V11.4091H52.6562V13.4091Z" fill="#1ACAA4"/>
<circle cx="53.9801" cy="18.6136" r="0.886364" fill="#1ACAA4"/>
<circle cx="58.4137" cy="18.6136" r="0.886364" fill="#1ACAA4"/>
<circle cx="62.8434" cy="18.6136" r="0.886364" fill="#1ACAA4"/>
<path d="M31.229 21.7509C33.4534 21.7509 35.2567 19.9549 35.2567 17.7395C35.2567 15.524 33.4534 13.728 31.229 13.728C29.0045 13.728 27.2012 15.524 27.2012 17.7395C27.2012 19.9549 29.0045 21.7509 31.229 21.7509Z" stroke="#787878" stroke-width="2" stroke-miterlimit="10" stroke-linecap="round"/>
<path d="M18.4219 37.6947H44.0359" stroke="#787878" stroke-width="2" stroke-miterlimit="10" stroke-linecap="round"/>
<path d="M27.1995 23.9278C27.0984 23.9438 26.9983 23.9655 26.8998 23.9932C25.6345 24.3315 24.5175 25.0782 23.7239 26.1163C22.9302 27.1544 22.5046 28.4254 22.5138 29.7302V37.6948" stroke="#787878" stroke-width="2" stroke-miterlimit="10" stroke-linecap="round"/>
<path d="M35.3145 23.9278C35.4156 23.9438 35.5157 23.9655 35.6142 23.9932C36.8795 24.3315 37.9964 25.0782 38.7901 26.1163C39.5838 27.1544 40.0094 28.4254 40.0002 29.7302V37.6948" stroke="#787878" stroke-width="2" stroke-miterlimit="10" stroke-linecap="round"/>
<path d="M26.8711 32.5985V37.6947" stroke="#787878" stroke-width="2" stroke-miterlimit="10" stroke-linecap="round"/>
<path d="M35.6426 32.5985V37.6947" stroke="#787878" stroke-width="2" stroke-miterlimit="10" stroke-linecap="round"/>
<path d="M19.5317 52.3281C21.7562 52.3281 23.5595 50.5321 23.5595 48.3167C23.5595 46.1012 21.7562 44.3052 19.5317 44.3052C17.3072 44.3052 15.5039 46.1012 15.5039 48.3167C15.5039 50.5321 17.3072 52.3281 19.5317 52.3281Z" stroke="#787878" stroke-width="2" stroke-miterlimit="10" stroke-linecap="round"/>
<path d="M10.7305 68.272H28.3328" stroke="#787878" stroke-width="2" stroke-miterlimit="10" stroke-linecap="round"/>
<path d="M15.5042 54.505C15.4031 54.521 15.303 54.5428 15.2045 54.5704C13.9391 54.9087 12.8222 55.6554 12.0285 56.6935C11.2349 57.7317 10.8093 59.0026 10.8185 60.3074V68.272" stroke="#787878" stroke-width="2" stroke-miterlimit="10" stroke-linecap="round"/>
<path d="M23.6191 54.505C23.7202 54.521 23.8203 54.5428 23.9189 54.5704C25.1842 54.9087 26.3011 55.6554 27.0948 56.6935C27.8885 57.7317 28.314 59.0026 28.3048 60.3074V68.272" stroke="#787878" stroke-width="2" stroke-miterlimit="10" stroke-linecap="round"/>
<path d="M15.1758 63.1758V68.272" stroke="#787878" stroke-width="2" stroke-miterlimit="10" stroke-linecap="round"/>
<path d="M23.9473 63.1758V68.272" stroke="#787878" stroke-width="2" stroke-miterlimit="10" stroke-linecap="round"/>
<path d="M40.0004 52.3281C42.2249 52.3281 44.0282 50.5321 44.0282 48.3167C44.0282 46.1012 42.2249 44.3052 40.0004 44.3052C37.776 44.3052 35.9727 46.1012 35.9727 48.3167C35.9727 50.5321 37.776 52.3281 40.0004 52.3281Z" stroke="#787878" stroke-width="2" stroke-miterlimit="10" stroke-linecap="round"/>
<path d="M31.1992 68.272H48.8016" stroke="#787878" stroke-width="2" stroke-miterlimit="10" stroke-linecap="round"/>
<path d="M35.973 54.505C35.8718 54.521 35.7718 54.5428 35.6732 54.5704C34.4079 54.9087 33.291 55.6554 32.4973 56.6935C31.7036 57.7317 31.2781 59.0026 31.2873 60.3074V68.272" stroke="#787878" stroke-width="2" stroke-miterlimit="10" stroke-linecap="round"/>
<path d="M44.0859 54.505C44.187 54.521 44.2871 54.5428 44.3857 54.5704C45.651 54.9087 46.7679 55.6554 47.5616 56.6935C48.3553 57.7317 48.7808 59.0026 48.7716 60.3074V68.272" stroke="#787878" stroke-width="2" stroke-miterlimit="10" stroke-linecap="round"/>
<path d="M35.6426 63.1758V68.272" stroke="#787878" stroke-width="2" stroke-miterlimit="10" stroke-linecap="round"/>
<path d="M44.416 63.1758V68.272" stroke="#787878" stroke-width="2" stroke-miterlimit="10" stroke-linecap="round"/>
<path d="M60.4672 52.3281C62.6917 52.3281 64.495 50.5321 64.495 48.3167C64.495 46.1012 62.6917 44.3052 60.4672 44.3052C58.2428 44.3052 56.4395 46.1012 56.4395 48.3167C56.4395 50.5321 58.2428 52.3281 60.4672 52.3281Z" stroke="#787878" stroke-width="2" stroke-miterlimit="10" stroke-linecap="round"/>
<path d="M51.666 68.272H69.2684" stroke="#787878" stroke-width="2" stroke-miterlimit="10" stroke-linecap="round"/>
<path d="M56.4397 54.505C56.3386 54.521 56.2385 54.5428 56.14 54.5704C54.8747 54.9087 53.7578 55.6554 52.9641 56.6935C52.1704 57.7317 51.7448 59.0026 51.7541 60.3074V68.272" stroke="#787878" stroke-width="2" stroke-miterlimit="10" stroke-linecap="round"/>
<path d="M64.5547 54.505C64.6558 54.521 64.7559 54.5428 64.8544 54.5704C66.1197 54.9087 67.2367 55.6554 68.0303 56.6935C68.824 57.7317 69.2496 59.0026 69.2404 60.3074V68.272" stroke="#787878" stroke-width="2" stroke-miterlimit="10" stroke-linecap="round"/>
<path d="M56.1113 63.1758V68.272" stroke="#787878" stroke-width="2" stroke-miterlimit="10" stroke-linecap="round"/>
<path d="M64.8828 63.1758V68.272" stroke="#787878" stroke-width="2" stroke-miterlimit="10" stroke-linecap="round"/>
</svg>
