<svg width="449" height="449" viewBox="0 0 449 449" fill="none" xmlns="http://www.w3.org/2000/svg">
<rect x="209.163" y="1.34229" width="30.5962" height="126.885" rx="14.25" stroke="white" stroke-opacity="0.5" stroke-width="1.5"/>
<rect x="209.164" y="320.699" width="30.5962" height="126.885" rx="14.25" stroke="white" stroke-opacity="0.5" stroke-width="1.5"/>
<rect x="322.776" y="23.5856" width="30.5962" height="126.885" rx="14.25" transform="rotate(30 322.776 23.5856)" stroke="white" stroke-opacity="0.5" stroke-width="1.5"/>
<rect x="163.097" y="300.157" width="30.5962" height="126.885" rx="14.25" transform="rotate(30 163.097 300.157)" stroke="white" stroke-opacity="0.5" stroke-width="1.5"/>
<rect x="410.041" y="99.6549" width="30.5962" height="126.885" rx="14.25" transform="rotate(60 410.041 99.6549)" stroke="white" stroke-opacity="0.5" stroke-width="1.5"/>
<rect x="133.471" y="259.333" width="30.5962" height="126.885" rx="14.25" transform="rotate(60 133.471 259.333)" stroke="white" stroke-opacity="0.5" stroke-width="1.5"/>
<rect x="447.583" y="209.165" width="30.5962" height="126.885" rx="14.25" transform="rotate(90 447.583 209.165)" stroke="white" stroke-opacity="0.5" stroke-width="1.5"/>
<rect x="128.227" y="209.165" width="30.5962" height="126.885" rx="14.25" transform="rotate(90 128.227 209.165)" stroke="white" stroke-opacity="0.5" stroke-width="1.5"/>
<rect x="425.34" y="322.775" width="30.5962" height="126.885" rx="14.25" transform="rotate(120 425.34 322.775)" stroke="white" stroke-opacity="0.5" stroke-width="1.5"/>
<rect x="148.767" y="163.098" width="30.5962" height="126.885" rx="14.25" transform="rotate(120 148.767 163.098)" stroke="white" stroke-opacity="0.5" stroke-width="1.5"/>
<rect x="349.271" y="410.043" width="30.5962" height="126.885" rx="14.25" transform="rotate(150 349.271 410.043)" stroke="white" stroke-opacity="0.5" stroke-width="1.5"/>
<rect x="189.592" y="133.472" width="30.5962" height="126.885" rx="14.25" transform="rotate(150 189.592 133.472)" stroke="white" stroke-opacity="0.5" stroke-width="1.5"/>
</svg>
